<svg enable-background="new 0 0 71 71" viewBox="0 0 71 71" xmlns="http://www.w3.org/2000/svg" xmlns:xlink="http://www.w3.org/1999/xlink"><clipPath id="a"><path d="m17.7 0c9.8 0 17.7 7.9 17.7 17.7v4.6c0 9.8-7.9 17.7-17.7 17.7-9.8 0-17.7-7.9-17.7-17.7v-4.6c0-9.8 7.9-17.7 17.7-17.7z"/></clipPath><clipPath id="b"><path d="m.3 32.1 5.9-12.7c-.4-1.2-.6-2.4-.4-3.6.4-1.6.7-9 1.2-10s2-1.4 2.3-.2c.2 1.7.2 3.4.2 5.1 0 0 4.5-9.3 5-10 .3-.6 1.1-.8 1.7-.4.3.3.5.7.5 1.1 0 0 .9-1.9 2.2-1.3.8.4 1.1 1.2.9 2 .4-.5 1.1-.7 1.6-.4.6.3.9 1 .7 1.7 0 .1 0 .1-.1.1-.2.5-.9 2.2-.9 2.2.4-.4 1-.5 1.5-.3.6.3.8.9.5 1.5 0 0 0 .1-.1.1-.2.5-4.8 10.9-5.2 11.7s-1.2 3.5-3.9 4.4l-5.1 12.8c-.6 1.5-2.3 2.3-3.9 1.7-1.2-.4-2.3-.9-3.4-1.5-1.3-.8-1.9-2.6-1.2-4z"/></clipPath><circle cx="35.5" cy="35.5" fill="#cff3f9" r="35.5"/><path d="m36.4 9.7c11.4 0 20.6 9.2 20.6 20.6v5.4c0 11.4-9.2 20.6-20.6 20.6-11.4 0-20.6-9.2-20.6-20.6v-5.4c0-11.4 9.2-20.6 20.6-20.6z" fill="#3aa4b5"/><g transform="translate(18.753 13.009)"><path d="m17.7 0c9.8 0 17.7 7.9 17.7 17.7v4.6c0 9.8-7.9 17.7-17.7 17.7-9.8 0-17.7-7.9-17.7-17.7v-4.6c0-9.8 7.9-17.7 17.7-17.7z" fill="#75cad8"/><g clip-path="url(#a)" fill="#cff3f9"><path d="m16.3-.9-17.5 45.2h4.8l16.7-45z"/><path d="m25.9-.9-17.5 45.2h4.8l16.7-45z"/></g></g><circle cx="50.2" cy="30.8" fill="#146572" r="2"/><path d="m13.5 45.4s3.4-.7 6.3-6.5 3.7-16.2 9.6-15.2 6.3 7.1 7.4 12 5.1 17 2.2 17.8-4.5-2.9-6.9-1.7-5.7 10.8-8.5 6.4-14.2-9.8-10.1-12.8z" fill="#fff"/><g transform="translate(13.477 27.478)"><path d="m.3 32.1 5.9-12.7c-.4-1.2-.6-2.4-.4-3.6.4-1.6.7-9 1.2-10s2-1.4 2.3-.2c.2 1.7.2 3.4.2 5.1 0 0 4.5-9.3 5-10 .3-.6 1.1-.8 1.7-.4.3.3.5.7.5 1.1 0 0 .9-1.9 2.2-1.3.8.4 1.1 1.2.9 2 .4-.5 1.1-.7 1.6-.4.6.3.9 1 .7 1.7 0 .1 0 .1-.1.1-.2.5-.9 2.2-.9 2.2.4-.4 1-.5 1.5-.3.6.3.8.9.5 1.5 0 0 0 .1-.1.1-.2.5-4.8 10.9-5.2 11.7s-1.2 3.5-3.9 4.4l-5.1 12.8c-.6 1.5-2.3 2.3-3.9 1.7-1.2-.4-2.3-.9-3.4-1.5-1.3-.8-1.9-2.6-1.2-4z" fill="#f7c139"/><g clip-path="url(#b)"><path d="m4.3 38.5s2.7-1.5 7.6-16.7c0 0 2.5.6 4.5-3.7s6.2-13.7 6.2-13.7l2.6.8s-7.6 19.3-8 19.5-7.7 13.9-7.7 13.9l-2.9 2.4z" fill="#e09f0e"/></g></g><g fill="#fff"><path d="m22.9 17.3c-.2 1-.9 1.9-1.9 2.4-.1.1-.2.3-.1.4 0 0 .1.1.1.1 1 .5 1.7 1.4 2 2.5.1.2.3.2.4 0 .2-1.1.8-2 1.7-2.7.1-.1.2-.3 0-.4 0 0 0 0-.1-.1-.9-.5-1.5-1.3-1.8-2.3 0-.2-.3-.2-.3.1z"/><path d="m44.9 40.5c-.3 1.3-1.1 2.4-2.3 3-.2.1-.2.3-.1.5 0 0 .1.1.1.1 1.2.6 2.1 1.8 2.4 3.1.1.3.4.3.4 0 .3-1.3 1-2.5 2-3.3.2-.1.2-.4.1-.5 0 0 0 0-.1-.1-1.1-.6-1.9-1.6-2.2-2.8 0-.3-.2-.3-.3 0z"/><path d="m40.9 25c-.3 1.3-1.1 2.4-2.3 3-.2.1-.2.3-.1.5 0 0 .1.1.1.1 1.2.6 2.1 1.8 2.4 3.1.1.3.4.3.4 0 .3-1.3 1-2.5 2-3.3.2-.1.2-.4.1-.5 0 0 0 0-.1-.1-1.1-.6-1.9-1.6-2.2-2.8 0-.3-.3-.2-.3 0z"/></g></svg>