<svg enable-background="new 0 0 70.97 70.97" viewBox="0 0 70.97 70.97" xmlns="http://www.w3.org/2000/svg" xmlns:xlink="http://www.w3.org/1999/xlink"><clipPath id="a"><path d="m4.11 6.51h18.22c1.13-1.15 2.53-1.99 4.08-2.43 2.07-.36 10.99-4.05 12.4-4.08s2.61 1.55 1.32 2.61c-1.86 1.16-3.81 2.16-5.84 3 0 0 13.41.23 14.5.44.87.09 1.51.86 1.45 1.73-.16.55-.53 1-1.03 1.27 0 0 2.66.03 2.7 1.91-.01 1.1-.84 2.01-1.93 2.13.81.16 1.39.88 1.37 1.71.03.9-.67 1.66-1.57 1.7-.07 0-.14 0-.21-.01-.66 0-3.04.17-3.04.17s1.3.48 1.19 1.66c-.02.8-.69 1.44-1.49 1.42-.05 0-.11-.01-.16-.01-.74.01-15.44.31-16.6.34s-4.76.52-7.39-2.2l-17.77.76c-2.14.09-3.97-1.5-4.18-3.63-.15-1.6-.16-3.2-.03-4.8.18-2.09 1.92-3.69 4.01-3.69z"/></clipPath><clipPath id="b"><path d="m6.34 28.57.17-8.28c-1.15-1.13-1.99-2.53-2.43-4.08-.36-2.07-4.05-10.99-4.08-12.41s1.55-2.61 2.61-1.32c1.16 1.86 2.16 3.81 3 5.84 0 0 .23-4.12.44-5.21.09-.87.86-1.51 1.73-1.45.55.16 1 .53 1.27 1.03 0 0 .03-2.66 1.91-2.7 1.1.01 2.01.83 2.13 1.93.16-.81.88-1.39 1.71-1.37.9-.03 1.66.67 1.7 1.57 0 .07 0 .14-.01.21 0 .33-.01 1.52-.01 1.52s.48-1.3 1.66-1.19c.8.02 1.44.68 1.42 1.49 0 .06-.01.11-.01.17.01.74.49 7.66.52 8.83s.52 4.75-2.2 7.39l.45 7.85c.13 2.38-1.66 4.44-4.04 4.62-1.28.1-2.57.1-3.86.01-2.35-.15-4.14-2.12-4.08-4.45z"/></clipPath><clipPath id="c"><path d="m5.21 7.82h-5.21v-6.62c0-.66.54-1.2 1.2-1.2h2.81c.66 0 1.2.54 1.2 1.2z"/></clipPath><circle cx="35.48" cy="35.48" fill="#cff3f9" r="35.48"/><ellipse cx="36.607" cy="55.738" fill="#1c99ad" opacity=".3" rx="24.76" ry="6.41"/><ellipse cx="36.607" cy="55.743" fill="#1c99ad" opacity=".3" rx="15.82" ry="4.1"/><g transform="translate(7.76 21.951)"><path d="m4.11 6.51h18.22c1.13-1.15 2.53-1.99 4.08-2.43 2.07-.36 10.99-4.05 12.4-4.08s2.61 1.55 1.32 2.61c-1.86 1.16-3.81 2.16-5.84 3 0 0 13.41.23 14.5.44.87.09 1.51.86 1.45 1.73-.16.55-.53 1-1.03 1.27 0 0 2.66.03 2.7 1.91-.01 1.1-.84 2.01-1.93 2.13.81.16 1.39.88 1.37 1.71.03.9-.67 1.66-1.57 1.7-.07 0-.14 0-.21-.01-.66 0-3.04.17-3.04.17s1.3.48 1.19 1.66c-.02.8-.69 1.44-1.49 1.42-.05 0-.11-.01-.16-.01-.74.01-15.44.31-16.6.34s-4.76.52-7.39-2.2l-17.77.76c-2.14.09-3.97-1.5-4.18-3.63-.15-1.6-.16-3.2-.03-4.8.18-2.09 1.92-3.69 4.01-3.69z" fill="#2b9bad"/><g clip-path="url(#a)"><path d="m1.65.18s3.31 2.36 23.8-.18c0 0 .65 3.27 6.89 3.31s19.48-.23 19.48-.23l.43 3.52s-26.85 1.56-27.25 1.29c-.41-.28-20.54-1.57-20.54-1.57l-4.46-2.09z" fill="#198091" transform="translate(-2.947 14.596)"/></g></g><path d="m3.03 1.16c.79-1.14 2.31-1.48 3.52-.8 2.23 1.14.31 3.39.31 3.39s2.85-1.45 4.52 1.14-3.41 2.9-3.41 2.9c.83.61 1.07 1.76.56 2.66-.96 1.45-2.92-.16-2.92-.16.05.96-.68 1.78-1.64 1.83-.27.02-.54-.03-.79-.14-2.33-.75-2.78-2.49-1.98-3.8-1.08-.57-1.51-1.89-.98-2.99.85-2.07 2.27-1.56 2.27-1.56-.07-.86.12-1.72.54-2.47z" fill="#fff" transform="translate(26.61 27.729)"/><g transform="translate(11.216 22.379)"><path d="m6.34 28.57.17-8.28c-1.15-1.13-1.99-2.53-2.43-4.08-.36-2.07-4.05-10.99-4.08-12.41s1.55-2.61 2.61-1.32c1.16 1.86 2.16 3.81 3 5.84 0 0 .23-4.12.44-5.21.09-.87.86-1.51 1.73-1.45.55.16 1 .53 1.27 1.03 0 0 .03-2.66 1.91-2.7 1.1.01 2.01.83 2.13 1.93.16-.81.88-1.39 1.71-1.37.9-.03 1.66.67 1.7 1.57 0 .07 0 .14-.01.21 0 .33-.01 1.52-.01 1.52s.48-1.3 1.66-1.19c.8.02 1.44.68 1.42 1.49 0 .06-.01.11-.01.17.01.74.49 7.66.52 8.83s.52 4.75-2.2 7.39l.45 7.85c.13 2.38-1.66 4.44-4.04 4.62-1.28.1-2.57.1-3.86.01-2.35-.15-4.14-2.12-4.08-4.45z" fill="#f7c139"/><g clip-path="url(#b)"><path d="m5.88.49s.39 6.16.46 9.36-.37 7-2.42 8.26c0 0 1.16 7.01.54 9.32s-4.46 4.85-4.46 4.85l4.94-.27 1.69-3.3-.76-9.13 2.27-3.25.19-10.26-.93-6.08z" fill="#e09f0e" transform="translate(12.701 1.565)"/></g></g><g fill="#fff"><circle cx="28.365" cy="33.024" r="1.42"/><circle cx="38.028" cy="37.505" r="1.42"/><circle cx="29.392" cy="30.014" r=".86"/><circle cx="36.276" cy="29.524" r=".86"/></g><g transform="translate(45.8 10.781)"><path d="m5.21 7.82h-5.21v-6.62c0-.66.54-1.2 1.2-1.2h2.81c.66 0 1.2.54 1.2 1.2z" fill="#146370"/><g clip-path="url(#c)"><path d="m5.65.31s1.1 8.1-5.65 7.53v2.67h8.52v-10.51z" fill="#08454f" transform="translate(-.835 -1.533)"/></g></g><path d="m5.27.33s.76 16.14-3.12 14.85-1.83 2.18.8 2.27 1.87 3.52 5.03 2.94 2-1.07 3.7-2.63-.44-1.47-.78-2.94-1.22-14.82-1.22-14.82z" fill="#f9e491" opacity=".58" transform="translate(40.946 18.463)"/><path d="m.77 0h5.34c.42 0 .77.34.77.77 0 .42-.34.77-.77.77h-5.34c-.43 0-.77-.35-.77-.77 0-.43.34-.77.77-.77z" fill="#146572" transform="translate(44.965 18.029)"/><path d="m5.86 2.59s-4.83-3.83-5.74-2.17 3.8 1.23 5.74 2.17z" fill="#f9e491" opacity=".58" transform="translate(38.326 28.722)"/><path d="m0 3.9s2.6-4.28 4.74-3.88-3.98 2.84-4.74 3.88z" fill="#f9e491" opacity=".58" transform="translate(54.021 30.363)"/><path d="m.01 9.3c.2-2.3.28-2.74.34-4.98s.12-4.7.25-4.28c.11 1.11.14 2.22.11 3.34.01 1.05-.04 6.69-.4 6.79s-.32-.6-.3-.87z" fill="#fff" transform="translate(46.493 21.024)"/><path d="m.02.18s-.18 11.4.67 11.76.22-.76 0-2.76-.69-9.18-.69-9.18" fill="#fff" transform="translate(50.058 22.074)"/><path d="m.88 0s-.51 6.32-.82 7.08.76.67.82-1.31 0-5.77 0-5.77z" fill="#fff" transform="translate(47.596 27.574)"/><path d="m.1 0s-.23 5.77 0 4.97c.12-1.66.12-3.32 0-4.97z" fill="#fff" transform="translate(48.303 20.805)"/></svg>