<svg enable-background="new 0 0 71 71" viewBox="0 0 71 71" xmlns="http://www.w3.org/2000/svg" xmlns:xlink="http://www.w3.org/1999/xlink"><clipPath id="a"><path d="m54.8 5.8s3.4.3 5.3 5.2.7 35.2-6.4 43.4c0 0-51.8 3-53.5-8.5s10.9-15.2 14.8-28.2 27-25.3 39.8-11.9z"/></clipPath><clipPath id="b"><path d="m5.7.5s-3.5 1.1-2.6 5.4-.1 5.8-1.3 8.4-3.8 3.6.6 6.6 26.5 10.4 37.9 4.7c3.9-1.9-.1-4.2-.5-5.7s2.4-3.4 1.5-5.9-7.5-2.3-12.4-3.1-15.9-13.4-23.2-10.4z"/></clipPath><clipPath id="c"><path d="m35.6 0s3 20.2-1.2 28.6-14.6 9.1-21.3 5.2-8.5-8.7-8.4-13.5c0 0-4.8-1.1-4.7-7.6s5.3-5 6.4-3.6c0 0 .4-4.1 4.3-4.7s17.7-.2 24.9-4.4z"/></clipPath><clipPath id="d"><path d="m8.6 3.8c-.4-2.3-2.6-4-5-3.8-2.1.2-3.7 2-3.6 4.2 0 .1 0 .3.1.4.4 2.3 1.5 3 4.8 3s4.3-1.6 3.7-3.8z"/></clipPath><clipPath id="e"><path d="m7.9 3.5c-.5-2.2-2.4-3.7-4.6-3.5-1.9.1-3.4 1.8-3.3 3.8v.4c.4 2.1 1.4 2.8 4.4 2.7s4-1.4 3.5-3.4z"/></clipPath><circle cx="35.5" cy="35.5" fill="#81d3fc" r="35.5"/><g transform="translate(.301 3.404)"><path d="m54.8 5.8s3.4.3 5.3 5.2.7 35.2-6.4 43.4c0 0-51.8 3-53.5-8.5s10.9-15.2 14.8-28.2 27-25.3 39.8-11.9z" fill="#076855"/><g clip-path="url(#a)"><path d="m0 43.2s1.2-9.5 4.8-14.1 5.6-4.6 5.7-8.4 1.7-11.3 9.3-12.3 27.8-3.1 28-8.5c0 0 2.2 2.9 2.6 12s-6.4 30.7-14.7 36z" fill="#034c3e" transform="translate(6.75 11.122)"/></g></g><path d="m2.8 0s1 11.3-2.8 13.2l7.8 5.2 8.2-4.1s-.2-5.7.9-8.6z" fill="#ff9f69" transform="translate(26.215 44.525)"/><g transform="translate(13.625 39.878)"><path d="m5.7.5s-3.5 1.1-2.6 5.4-.1 5.8-1.3 8.4-3.8 3.6.6 6.6 26.5 10.4 37.9 4.7c3.9-1.9-.1-4.2-.5-5.7s2.4-3.4 1.5-5.9-7.5-2.3-12.4-3.1-15.9-13.4-23.2-10.4z" fill="#f93508"/><g clip-path="url(#b)" fill="#137368"><path d="m5.3 0s-7.7-.7-4.6 4 6.7 8.7 10.9 10.4 13.8 2.8 16.9-.9 2.1-5.5 2.1-5.5z" opacity=".3" transform="translate(7.266 -.375)"/><path d="m2.3 0s4.7 6.3 10 7.4 10.4 3.7 7 4.2-19-4.5-19.3-7.7z" opacity=".3" transform="translate(0 7.747)"/><path d="m11.9 0c-.1 0-12.3 0-11.9 1.9s11.5 0 11.7-.1.2-1.8.2-1.8z" opacity=".3" transform="translate(29.711 18.933)"/></g></g><g transform="translate(20.113 20.686)"><path d="m35.6 0s3 20.2-1.2 28.6-14.6 9.1-21.3 5.2-8.5-8.7-8.4-13.5c0 0-4.8-1.1-4.7-7.6s5.3-5 6.4-3.6c0 0 .4-4.1 4.3-4.7s17.7-.2 24.9-4.4z" fill="#feb98f"/><g clip-path="url(#c)"><circle cx="6.5" cy="6.5" fill="#ffa471" r="6.5" transform="translate(2.17 16.088)"/><circle cx="6.5" cy="6.5" fill="#ffa471" r="6.5" transform="translate(31.028 16.727)"/><ellipse cx="1.1" cy="4.1" fill="#ed9569" rx=".5" ry="4.1" transform="matrix(.9858 -.168 .168 .9858 24.768 13.9392)"/><path d="m4 0 .4 1.6s.7 12.3 9.3 13.8 20.4 1.7 21.7-2.6v8.4l-3.4 8.9-8 2.4-8.1.4-12.6-6.6-3.3-7.8 2.4-2.5s2.5.7 2.8-1.8c.4-3.2-1-9.4-1-9.4z" fill="#fff" transform="translate(2.251 4.388)"/></g></g><path d="m4.1 0c2.6.2 5.1 1.7 2.9 1.7s-7.9-.2-6.9-1 2.6-.7 4-.7z" fill="#032d26" transform="translate(34.301 27.025)"/><path d="m4 0c2.6-.1 5.3 1.1 3.1 1.3s-7.9.5-7-.3 2.5-.9 3.9-1z" fill="#032d26" transform="translate(47.21 27.447)"/><g transform="translate(33.476 30.981)"><path d="m8.6 3.8c-.4-2.3-2.6-4-5-3.8-2.1.2-3.7 2-3.6 4.2 0 .1 0 .3.1.4.4 2.3 1.5 3 4.8 3s4.3-1.6 3.7-3.8z" fill="#fff"/><g clip-path="url(#d)"><ellipse cx="2.8" cy="3.2" fill="#0b473c" rx="2.5" ry="2.9" transform="matrix(.9904 -.138 .138 .9904 -.2543 1.0136)"/></g></g><path d="m8.3 2.2c-1-1.7-3.1-2.6-5.1-2.1-1.9.4-3.3 2.1-3.2 4 0 1.2 0 1.7.5 1.6s.1-1 .4-2.4c.3-1.2 1.3-2.3 2.6-2.6 1.3-.4 2.8 0 3.7 1 1.2 1.1 1.4 2.6 2 2.6.3 0-.4-1.4-.9-2.1z" fill="#032d26" transform="translate(32.952 30.43)"/><ellipse cx=".8" cy=".9" fill="#076855" rx=".6" ry=".8" transform="matrix(.962 -.2731 .2731 .962 36.7052 33.5666)"/><g transform="translate(47.687 31.294)"><path d="m7.9 3.5c-.5-2.2-2.4-3.7-4.6-3.5-1.9.1-3.4 1.8-3.3 3.8v.4c.4 2.1 1.4 2.8 4.4 2.7s4-1.4 3.5-3.4z" fill="#fff"/><g clip-path="url(#e)"><ellipse cx="2.6" cy="2.9" fill="#0b473c" rx="2.2" ry="2.6" transform="matrix(.9904 -.138 .138 .9904 -.2288 .9297)"/></g></g><path d="m7.6 2c-1-1.6-2.9-2.4-4.7-1.9-1.7.4-3 1.9-2.9 3.7 0 1.1 0 1.5.5 1.5s.1-.9.4-2.2c.1-1.2 1.1-2.2 2.3-2.5 1.2-.4 2.5 0 3.4.9 1.1 1 1.3 2.3 1.8 2.4.2 0-.4-1.3-.8-1.9z" fill="#032d26" transform="translate(47.21 30.793)"/><ellipse cx=".7" cy=".9" fill="#076855" rx=".6" ry=".7" transform="matrix(.962 -.2731 .2731 .962 50.6042 33.651)"/><path d="m15.6 4.8h-.5c-5.2 0-10.3-1.2-14.8-3.7-.3-.2-.4-.6-.2-.8s.5-.4.8-.2c4.4 2.3 9.3 3.6 14.2 3.5 7.5 0 8.8-1 8.9-1.1.2-.3.5-.4.8-.2.2.1.4.4.3.7-.2.5-1.5 1.8-9.5 1.8z" fill="#2b9bad" opacity=".28" transform="translate(30.228 41.068)"/><path d="m15.6 4.8h-.5c-5.2 0-10.3-1.2-14.8-3.7-.3-.2-.4-.6-.2-.8s.5-.4.8-.2c4.4 2.3 9.3 3.6 14.2 3.5 7.5 0 8.8-1 8.9-1.1.2-.3.5-.4.8-.2.2.1.4.4.3.7-.2.5-1.5 1.8-9.5 1.8z" fill="#2b9bad" opacity=".28" transform="translate(29.439 44.525)"/><path d="m15.6 4.8h-.5c-5.2 0-10.3-1.2-14.8-3.7-.3-.2-.4-.6-.2-.8s.5-.4.8-.2c4.4 2.3 9.3 3.6 14.2 3.5 7.5 0 8.8-1 8.9-1.1.2-.3.5-.4.8-.2.2.1.4.4.3.7-.2.5-1.5 1.8-9.5 1.8z" fill="#2d93aa" opacity=".19" transform="translate(27.972 47.953)"/></svg>