<svg enable-background="new 0 0 176.86 147.21" viewBox="0 0 176.86 147.21" xmlns="http://www.w3.org/2000/svg" xmlns:xlink="http://www.w3.org/1999/xlink"><clipPath id="a"><circle cx="9.82" cy="9.82" r="9.82"/></clipPath><clipPath id="b"><path d="m60.21 7.84s10.57-4.26 15.49 4.13-6.79 26.88 1.86 32.47 7.98 12.64 5.19 21.42 11.44 14.37 15.7 25.42-8.12 30.07-55.89 29.14-45.51-24.49-39.25-31.27-.4-17.02 4.92-25.55 11.44-17.24 9.85-25.86 2.11-25.11 13.95-29.24 16.82-16.5 28.18-.66z"/></clipPath><clipPath id="c"><path d="m9.25 0s9.13 11.04 16.74 14.14 35.77 2.77 39.71 2.09c3.93-.68 8.9-4.29 14.82.12s7 13.67-.82 14.31c-4.87.32-9.73-.68-14.08-2.9 0 0-38.67 3.49-47.76-.38-6.71-2.84-17.86-16.71-17.86-16.71z"/></clipPath><clipPath id="d"><path d="m0 1.13c3.5-1.42 4.78-2.31 13.19 2.48s26.86 27.5 26.86 27.5-2.13 16.31-17.03 17.47l-13.84-14.57z"/></clipPath><clipPath id="e"><path d="m25.62.47-2.28-.47s-18.31 2.33-22.74 12.97c-3.12 7.49 6.97 48.64 6.97 48.64s1.9 7.57 4.03 16.46c0 0 22.7 5.11 46.13-1.16 0 0 3.2-15.16 5.68-26.24s2.31-16.41-.89-26.88-3.76-17.38-6.76-19.15-14.48-3.47-14.48-3.47z"/></clipPath><clipPath id="f"><path d="m32.57 14.46c-.55-8.48-5.64-13.56-9.18-14.37-5.16-1.19-11.94 10.24-14.54 17.22s-8.85 22.84-8.85 22.84c.57 1.18 1.29 2.27 2.15 3.26 3.88 4.47 9.92 6.21 14.16 6.89 1.52.25 3.05.39 4.58.43h.31c4.01-8.64 7.4-17.55 10.17-26.66.97-3.12 1.38-6.36 1.2-9.61z"/></clipPath><clipPath id="g"><path d="m41.19 4.64s1.3 18.94-3.43 28.46-10.45 9.96-18.81 6.5c-8.04-3.32-12.09-8.16-13.7-16.27 0 0-5.36-1.29-5.24-8.54s5.94-5.63 7.19-4.02c0 0 1.5-10.06 5.85-10.74s20.12 9.27 28.14 4.61z"/></clipPath><clipPath id="h"><path d="m9.69 4.31c-.51-2.65-2.92-4.49-5.61-4.3-2.41.16-4.23 2.25-4.06 4.65.01.16.03.32.06.48.5 2.57 1.71 3.41 5.36 3.32s4.88-1.73 4.25-4.15z"/></clipPath><clipPath id="i"><path d="m8.82 3.92c-.46-2.41-2.65-4.09-5.1-3.92-2.19.15-3.85 2.05-3.7 4.24.01.15.03.29.05.44.46 2.34 1.56 3.1 4.89 3.02s4.44-1.57 3.86-3.78z"/></clipPath><clipPath id="j"><path d="m.03 2.63c-.32-1.44 1.71-3.28 5.6-2.4s4.84-.12 6.43.65 1.01 3.34-2.22 3.22-9.24 1.05-9.81-1.47z"/></clipPath><clipPath id="k"><path d="m58.75 54.04c-2.68.89-35.4 11.91-36.4 9.91-.54-1.09-1.79-3.87-3.42-7.61-1.74-3.98-3.92-9.05-6.18-14.32l-.73-1.7c-5.88-13.75-12.02-28.26-12.02-28.26s12.71-4.5 23.7-8c7.82-2.49 14.77-4.48 15.63-3.98.99.58 5.76 13.01 10.33 25.8 1.74 4.88 3.46 9.82 4.92 14.16 2.67 7.93 4.51 13.89 4.17 14z"/></clipPath><clipPath id="l"><path d="m76.82 14.13c-1.52 2.06-4.18 4.04-9.92 6.26-9.43 3.39-18.6 7.47-27.43 12.2-2.9 1.59-5.63 2.96-8.21 4.1-16.85 7.48-26.91 5.79-30.38-.9-2.84-5.5 1.81-16.54 4.72-22.43 3.88 4.47 9.92 6.21 14.16 6.89l-1.61 4.28s2.81-.87 6.92-2.16c10.58-3.31 29.8-9.39 32.1-10.54 1.38-.69 3-3.01 4.8-5.6 2.39-3.43 3.77-5.9 6.91-6.2 7.41-.71 10.7 10.38 7.94 14.1z"/></clipPath><path d="m.12 24.45c1.26-9.87 10.24-23.01 21.94-24.23s22.33 2.6 10.51 14.58-13.89 27.65-23.05 23.46-9.9-9.88-9.4-13.81z" fill="#fefefe" opacity=".61" transform="translate(0 25.576)"/><path d="m27.84 92.7c-13.7-8.19-27.25-16.83-27.83-37.71s28.73-23.08 52.64-36.9 38.55-27.9 54.76-8.78 6.35 47.46-5.75 61.32-26.24 50.51-73.82 22.07z" fill="#fefefe" opacity=".61" transform="translate(3.658 42.261)"/><circle cx="108.657" cy="128.714" fill="#0d8e53" r="9.82"/><g clip-path="url(#a)" transform="translate(98.837 118.894)"><path d="m1.03 9.51s7.5 3.23 12.58.47 6.59-9.98 6.59-9.98l3.46 7.84-4.62 9.57s-7.31 3.12-7.91 3.4-11.13-4.4-11.13-4.4z" fill="#076855" opacity=".44" transform="translate(-1.881 2.242)"/></g><path d="m3.71 4.89c-.39-.75-.85-1.46-1.38-2.11-.52-.5-1.77.81-2.23.19s.8-1.65 2.19-2.42 2.32-.75 1.92.17-1.21.8-.72 1.67 1.15 1.79 1.15 1.79-.07.56-.93.71z" fill="#168e5a" transform="translate(99.158 116.172)"/><path d="m1.35 2.84c.03-.54.01-1.08-.06-1.61-.12-.43-1.23-.13-1.29-.62s.98-.64 1.99-.61 1.52.34 1 .72-.92.05-.94.68.05 1.35.05 1.35-.22.29-.75.09z" fill="#52ce9c" transform="translate(106.496 116.443)"/><path d="m.33 3.81c.36-.63.66-1.3.88-1.99.12-.6-1.41-.9-1.19-1.52s1.57-.19 2.78.45 1.64 1.32.79 1.47-1.15-.5-1.54.26c-.28.54-.53 1.1-.75 1.67-.01 0-.45.21-.97-.34z" fill="#2f8c64" transform="translate(112.361 116.23)"/><path d="m0 2.42c.47-.26.92-.57 1.33-.92.31-.34-.55-1.12-.17-1.43s1.07.48 1.59 1.36.54 1.47-.06 1.23-.54-.75-1.08-.43c-.39.24-.77.5-1.13.77 0 0-.37-.03-.48-.58z" fill="#21ad71" transform="translate(116.001 121.068)"/><path d="m.12 1.7c.73.08 1.47.08 2.2.01.6-.13.26-1.67.92-1.71s.81 1.37.71 2.75-.56 2.06-1.04 1.33 0-1.26-.87-1.33-1.85-.02-1.85-.02-.37-.33-.07-1.03z" fill="#168e5a" transform="translate(118.044 125.944)"/><path d="m.24.41c.49.24 1 .42 1.52.56.46.05.6-1.09 1.07-.96s.22 1.15-.19 2.08-.9 1.28-1.05.66.31-.87-.27-1.13c-.42-.18-.84-.34-1.28-.48 0 0-.18-.32.2-.73z" fill="#2f8c64" transform="translate(116.843 132.508)"/><path d="m.79 0c.36.64.78 1.24 1.26 1.8.46.42 1.51-.75 1.93-.24s-.65 1.45-1.83 2.17-2 .73-1.68-.08 1.02-.73.58-1.47-1.05-1.53-1.05-1.53.04-.49.79-.65z" fill="#52ce9c" transform="translate(113.28 136.375)"/><path d="m1.68.06c-.02.5.01 1 .08 1.5.12.41 1.15.1 1.21.56s-.9.61-1.84.6-1.42-.29-.95-.65.86-.05.86-.64c0-.42-.02-.84-.06-1.26.01-.01.21-.29.7-.11z" fill="#21ad71" transform="translate(107.603 137.888)"/><path d="m4.15.43c-.41.7-.75 1.43-1.02 2.2-.14.67 1.56 1.03 1.3 1.71s-1.74.19-3.08-.54-1.8-1.5-.85-1.65 1.26.57 1.72-.26.87-1.84.87-1.84.49-.24 1.06.38z" fill="#168e5a" transform="translate(100.429 136.975)"/><path d="m3.18.59c-.48.26-.93.58-1.35.94-.31.34.56 1.13.18 1.44s-1.09-.49-1.62-1.37-.54-1.49.06-1.25.55.76 1.1.43 1.14-.78 1.14-.78.37.03.49.59z" fill="#21ad71" transform="translate(97.991 133.735)"/><path d="m3.97 2.66c-.75-.06-1.5-.05-2.25.04-.62.16-.23 1.73-.91 1.79s-.87-1.39-.8-2.81.53-2.12 1.04-1.38.03 1.29.92 1.34 1.9-.02 1.9-.02.39.31.1 1.04z" fill="#2f8c64" transform="translate(95.042 127.665)"/><path d="m3.97 3.7c-.68-.33-1.39-.59-2.12-.78-.63-.08-.84 1.53-1.5 1.33s-.3-1.61.28-2.9 1.26-1.78 1.47-.91-.44 1.22.37 1.58 1.78.67 1.78.67.25.44-.28 1.01z" fill="#52ce9c" transform="translate(96.956 121.435)"/><g fill="#fffefd"><circle cx="102.096" cy="129.363" opacity=".5" r="1.67"/><circle cx="110.495" cy="134.225" opacity=".5" r="1.67"/><circle cx="109.526" cy="121.862" opacity=".5" r=".99"/><circle cx="105.881" cy="134.3" opacity=".5" r=".99"/><circle cx="115.244" cy="130.647" opacity=".5" r="1.67"/><circle cx="109.72" cy="128.279" opacity=".5" r="2.74"/><circle cx="104.861" cy="124.08" opacity=".5" r="2.61"/><circle cx="114.199" cy="125.124" opacity=".5" r="1.25"/><circle cx="107.661" cy="23.864" opacity=".5" r="1.22"/><circle cx="113.792" cy="27.413" opacity=".5" r="1.22"/><circle cx="113.081" cy="18.385" opacity=".5" r=".72"/><circle cx="110.42" cy="27.464" opacity=".5" r=".72"/><circle cx="117.259" cy="24.801" opacity=".5" r="1.22"/><circle cx="113.225" cy="23.072" opacity=".5" r="2"/><circle cx="109.683" cy="20.012" opacity=".5" r="1.91"/><circle cx="116.492" cy="20.766" opacity=".5" r=".91"/></g><g transform="translate(8.92 .134)"><path d="m60.21 7.84s10.57-4.26 15.49 4.13-6.79 26.88 1.86 32.47 7.98 12.64 5.19 21.42 11.44 14.37 15.7 25.42-8.12 30.07-55.89 29.14-45.51-24.49-39.25-31.27-.4-17.02 4.92-25.55 11.44-17.24 9.85-25.86 2.11-25.11 13.95-29.24 16.82-16.5 28.18-.66z" fill="#076855"/><g clip-path="url(#b)"><path d="m3.4 105.76c-4.47-8.55-4.56-18.72-.23-27.35 7.27-14.94 5.61-18.98 6-28.41s5.65-10.05 4.35-17.85-3.92-15.53.39-19.23 5.19-8.93 8.74-11.91 27.6 3.59 30.86-.18 1.97 6.21 2.19 9.85-2.75 15.71.98 22.89-.98 16.85 1.15 21.38 20.5 54.06 8.6 60.94-63.03-10.13-63.03-10.13" fill="#035142" transform="translate(16.793 18.754)"/></g></g><g transform="translate(91.612 98.784)"><path d="m9.25 0s9.13 11.04 16.74 14.14 35.77 2.77 39.71 2.09c3.93-.68 8.9-4.29 14.82.12s7 13.67-.82 14.31c-4.87.32-9.73-.68-14.08-2.9 0 0-38.67 3.49-47.76-.38-6.71-2.84-17.86-16.71-17.86-16.71z" fill="#f4c990"/><g clip-path="url(#c)"><path d="m9.58 0s-2.04 5.26 3.99 8.44 47.16 5.33 47.16 5.33 20.97-.19 17.16-6.4l4.7-.09 4.52 10.56-20.94 2.57-5.23-4.17-42.32 4.17s-14.9-7.01-14.9-7.36-3.72-8.08-3.72-8.08z" fill="#f4b07d" transform="translate(4.876 14.001)"/></g></g><g transform="translate(72.055 70.673)"><path d="m0 1.13c3.5-1.42 4.78-2.31 13.19 2.48s26.86 27.5 26.86 27.5-2.13 16.31-17.03 17.47l-13.84-14.57z" fill="#75cad8"/><g clip-path="url(#d)"><path d="m11.98 0c.45-.04 8.85 11.33 10.31 26.56s17.17 19.19 17.17 19.19-13.42 7.2-13.74 7.07-11.18-4.05-11.13-4.41-14.59-21.8-14.59-22 1.72-23.15 1.72-23.15 3.6-2.33 3.8-2.33 6.46-.93 6.46-.93z" fill="#2c96a8" opacity=".38" transform="translate(.333 -2.18)"/></g></g><g transform="translate(22.256 66.01)"><path d="m25.62.47-2.28-.47s-18.31 2.33-22.74 12.97c-3.12 7.49 6.97 48.64 6.97 48.64s1.9 7.57 4.03 16.46c0 0 22.7 5.11 46.13-1.16 0 0 3.2-15.16 5.68-26.24s2.31-16.41-.89-26.88-3.76-17.38-6.76-19.15-14.48-3.47-14.48-3.47z" fill="#75cad8"/><g clip-path="url(#e)" fill="#52bacc"><path d="m0 2.12 1.6 9.78 3.42-.93c-.1 1.25-.27 2.5-.5 3.74 3.03 2.81 13 5.89 13.04 5.74.05-.2-2.4-5.35-2.4-5.35l-2.65-10.65s-6.03-4.37-6.08-4.45-6.43 2.12-6.43 2.12z" transform="translate(19.185 -2.122)"/><path d="m0 11.11v2.26l2.4 5.35 6.53-6.74-.82-4.49 2.52.38.24-6.47-3.93-1.4z" transform="translate(34.337 -.398)"/><path d="m8.04 74.59c-.02 0-.04 0-.05 0-.24-.03-.41-.24-.38-.48 2.74-22.49.53-40.12-1.8-50.96-2.53-11.72-5.73-18.2-5.77-18.26-.03-.08-.05-.17-.04-.25l.57-4.26c.03-.24.25-.4.49-.37s.4.25.37.49l-.55 4.12c2.59 5.89 4.52 12.04 5.77 18.34 1.53 7.21 2.49 14.54 2.87 21.9.5 9.79.15 19.61-1.06 29.34-.02.23-.2.39-.42.39z" transform="translate(33.956 8.315)"/></g></g><g transform="translate(6.615 72.501)"><path d="m32.57 14.46c-.55-8.48-5.64-13.56-9.18-14.37-5.16-1.19-11.94 10.24-14.54 17.22s-8.85 22.84-8.85 22.84c.57 1.18 1.29 2.27 2.15 3.26 3.88 4.47 9.92 6.21 14.16 6.89 1.52.25 3.05.39 4.58.43h.31c4.01-8.64 7.4-17.55 10.17-26.66.97-3.12 1.38-6.36 1.2-9.61z" fill="#75cad8"/><g clip-path="url(#f)"><path d="m25.2 0c1.29 5.9 1.08 12.03-.62 17.83-2.84 9.58-15.81 28.57-24.58 27.95l4.71 5.15 14.55 2.22 11.8-7.81s1.95-17.5 2.13-18.37 2.03-14.4 2.03-14.4z" fill="#38ad7d" opacity=".38" transform="translate(4.29 4.223)"/></g></g><path d="m3.2 0s-.47 11.05-3.2 13.05l9.74 12.72 6.94-11.81s-1.78-6.97-.48-10.21z" fill="#ff9f69" transform="translate(46.85 53.214)"/><g transform="translate(38.753 22.31)"><path d="m41.19 4.64s1.3 18.94-3.43 28.46-10.45 9.96-18.81 6.5c-8.04-3.32-12.09-8.16-13.7-16.27 0 0-5.36-1.29-5.24-8.54s5.94-5.63 7.19-4.02c0 0 1.5-10.06 5.85-10.74s20.12 9.27 28.14 4.61z" fill="#f4c990"/><g clip-path="url(#g)"><circle cx="7.27" cy="7.27" fill="#fca95e" r="7.27" transform="translate(3.863 20.117)"/><circle cx="7.27" cy="7.27" fill="#fca95e" r="7.27" transform="translate(34.824 19.275)"/><ellipse cx="1.27" cy="4.6" fill="#ed9569" rx=".51" ry="4.58" transform="matrix(.9858 -.168 .168 .9858 27.1562 16.2018)"/><path d="m.67 15.81c.33-.31 1.26-3.28 4.39-1.66s4.68 1.89 5.37-2.54 2.12-9.02 5.69-8.02 20.81 8.25 27.33.07l-.4-3.66-33.18.35-9.87 12.22z" fill="#ffaf73" transform="translate(-1.303 -1.743)"/></g></g><path d="m4.6.05c2.89.18 5.76 1.84 3.3 1.83s-8.89-.25-7.78-1.11 2.87-.82 4.48-.72z" fill="#032d26" transform="translate(53.751 29.926)"/><path d="m4.49.01c2.89-.1 5.91 1.28 3.46 1.51s-8.88.59-7.85-.36 2.79-1.1 4.39-1.15z" fill="#032d26" transform="translate(69.165 30.4)"/><g transform="translate(53.751 34.366)"><path d="m9.69 4.31c-.51-2.65-2.92-4.49-5.61-4.3-2.41.16-4.23 2.25-4.06 4.65.01.16.03.32.06.48.5 2.57 1.71 3.41 5.36 3.32s4.88-1.73 4.25-4.15z" fill="#fff"/><g clip-path="url(#h)"><ellipse cx="3.17" cy="3.56" fill="#0b473c" rx="2.76" ry="3.21" transform="matrix(.9904 -.138 .138 .9904 -.2815 1.141)"/></g></g><path d="m9.37 2.5c-1.22-1.96-3.57-2.92-5.82-2.37-2.12.43-3.62 2.34-3.54 4.51-.03 1.3.04 1.86.56 1.84s.07-1.08.5-2.66c.22-1.5 1.35-2.71 2.83-3.05 1.49-.47 3.12-.05 4.2 1.09 1.32 1.25 1.55 2.89 2.2 2.91.31.01-.4-1.54-.93-2.27z" fill="#032d26" transform="translate(53.163 33.748)"/><ellipse cx=".92" cy="1.06" fill="#076855" rx=".7" ry=".91" transform="matrix(.962 -.2731 .2731 .962 57.3643 37.2798)"/><g transform="translate(69.7 34.717)"><path d="m8.82 3.92c-.46-2.41-2.65-4.09-5.1-3.92-2.19.15-3.85 2.05-3.7 4.24.01.15.03.29.05.44.46 2.34 1.56 3.1 4.89 3.02s4.44-1.57 3.86-3.78z" fill="#fff"/><g clip-path="url(#i)"><ellipse cx="2.89" cy="3.25" fill="#0b473c" rx="2.51" ry="2.93" transform="matrix(.9904 -.138 .138 .9904 -.2562 1.0387)"/></g></g><path d="m8.53 2.28c-1.11-1.79-3.25-2.66-5.3-2.16-1.93.4-3.29 2.13-3.22 4.1-.02 1.19.03 1.7.51 1.68s.07-.98.46-2.42c.2-1.37 1.22-2.47 2.57-2.78 1.36-.43 2.84-.04 3.83.99 1.2 1.14 1.41 2.63 2 2.65.28.01-.37-1.4-.85-2.06z" fill="#032d26" transform="translate(69.165 34.155)"/><ellipse cx=".84" cy=".97" fill="#076855" rx=".64" ry=".83" transform="matrix(.962 -.2731 .2731 .962 72.9903 37.3705)"/><path d="m1.59.75c-.39-.1-.74-.31-1.01-.6-.28-.42-.88.09-.39.6.37.31.84.48 1.33.47z" fill="#032d26" transform="translate(51.975 36.658)"/><path d="m0 .75c.39-.1.74-.31 1.01-.6.29-.41.89.09.4.6-.37.31-.85.48-1.33.47z" fill="#032d26" transform="translate(77.626 35.767)"/><g transform="translate(56.594 50.789)"><path d="m.03 2.63c-.32-1.44 1.71-3.28 5.6-2.4s4.84-.12 6.43.65 1.01 3.34-2.22 3.22-9.24 1.05-9.81-1.47z" fill="#682d0c"/><g clip-path="url(#j)"><path d="m0 .85s1.55 1.67 5.12 1.85 6.13-.42 7.06-1.04l-1.67-1.02-10.09-.64z" fill="#fff" transform="translate(.927 -.855)"/></g></g><path d="m2.57 1.3 1.24-1.18s4.66-1.35 6.08 4.95l-9.89 3.59z" fill="#7abcaf" transform="translate(46.51 79.448)"/><g transform="translate(20.428 83.02)"><path d="m58.75 54.04c-2.68.89-35.4 11.91-36.4 9.91-.54-1.09-1.79-3.87-3.42-7.61-1.74-3.98-3.92-9.05-6.18-14.32l-.73-1.7c-5.88-13.75-12.02-28.26-12.02-28.26s12.71-4.5 23.7-8c7.82-2.49 14.77-4.48 15.63-3.98.99.58 5.76 13.01 10.33 25.8 1.74 4.88 3.46 9.82 4.92 14.16 2.67 7.93 4.51 13.89 4.17 14z" fill="#2da876"/><g clip-path="url(#k)" fill="#178e5b"><path d="m2.53 29.01 31.42-11.04s-6.67-7.34-5.34-12.68 4.37-5.29 4.37-5.29l-32.58 10.43s-1.77 8.15 2.13 18.58z" transform="translate(2.743 .543)"/><path d="m3.81 24.11 38.95-17.28-2.66-6.83-40.1 19.78z" transform="translate(13.356 31.62)"/></g></g><path d="m26.04 5.39c-.66 7.07 3.97 15.5 3.97 15.5l-27.41 9.52s-5.85-15.04 0-21.09l25.95-9.32s-2.13 1.28-2.51 5.39z" fill="#fefefe" transform="translate(21.771 79.57)"/><g transform="translate(3.161 102.551)"><path d="m76.82 14.13c-1.52 2.06-4.18 4.04-9.92 6.26-9.43 3.39-18.6 7.47-27.43 12.2-2.9 1.59-5.63 2.96-8.21 4.1-16.85 7.48-26.91 5.79-30.38-.9-2.84-5.5 1.81-16.54 4.72-22.43 3.88 4.47 9.92 6.21 14.16 6.89l-1.61 4.28s2.81-.87 6.92-2.16c10.58-3.31 29.8-9.39 32.1-10.54 1.38-.69 3-3.01 4.8-5.6 2.39-3.43 3.77-5.9 6.91-6.2 7.41-.71 10.7 10.38 7.94 14.1z" fill="#f4c990"/><g clip-path="url(#l)"><path d="m2.24 6.2c-.07.45-5.06 10.04.07 8.94s40.52-15.14 40.52-15.14l-6.65.27-29.41 10.64.47-4.07z" fill="#f4b07d" transform="translate(14.346 11.832)"/></g></g><path d="m2.4 12.45-2.4-8.25s24.33-9.45 36.72 0l-3.44 8.25c-.01 0-5.87 7.19-30.88 0z" fill="#fefefe" transform="translate(40.816)"/><path d="m6.23 7.02v1.74c0 .44-.35.79-.79.79h-1.33c-.44 0-.79-.35-.79-.79v-1.73c0-.44-.35-.79-.79-.79h-1.74c-.44-.01-.79-.36-.79-.8v-1.33c0-.44.35-.79.79-.79h1.73c.44 0 .79-.35.79-.79v-1.74c.01-.44.36-.79.8-.79h1.33c.44 0 .79.35.79.79v1.73c0 .44.35.79.79.79h1.74c.44 0 .79.35.79.79v1.33c0 .44-.35.79-.79.79h-1.74c-.44 0-.79.36-.79.8z" fill="#ff1212" transform="translate(60.834 3.519)"/></svg>